<svg width="1029" height="238" viewBox="0 0 1029 238" fill="none" xmlns="http://www.w3.org/2000/svg">
<g clip-path="url(#clip0_10_11730)">
<g clip-path="url(#clip1_10_11730)">
<path d="M142.661 67.2197L75.4416 105.157L3.46195 64.6233L0 66.4985V95.9251L75.4416 138.334L142.661 100.541V116.12L75.4416 154.057L3.46195 113.523L0 115.399V120.447L75.4416 162.856L150.739 120.447V91.0206L147.277 89.1454L75.4416 129.535L8.07788 91.7419V76.1631L75.4416 113.956L150.739 71.5472V42.5534L146.988 40.3897L75.4416 80.6348L11.5398 44.8613L75.4416 8.94365L127.948 38.5144L132.564 35.918V32.3118L75.4416 0.144531L0 42.5534V47.1693L75.4416 89.5782L142.661 51.641V67.2197Z" fill="#FF3621"/>
<path d="M291.668 138.769V9.23438H271.762V57.7016C271.762 58.4229 271.329 58.9998 270.608 59.2883C269.887 59.5768 269.166 59.2883 268.733 58.8556C261.953 50.922 251.423 46.4503 239.883 46.4503C215.217 46.4503 195.888 67.222 195.888 93.7636C195.888 106.746 200.359 118.718 208.582 127.518C216.804 136.317 227.911 141.077 239.883 141.077C251.279 141.077 261.809 136.317 268.733 128.095C269.166 127.518 270.031 127.373 270.608 127.518C271.329 127.806 271.762 128.383 271.762 129.104V138.769H291.668ZM244.211 123.046C228.343 123.046 215.938 110.208 215.938 93.7636C215.938 77.3193 228.343 64.4813 244.211 64.4813C260.078 64.4813 272.483 77.3193 272.483 93.7636C272.483 110.208 260.078 123.046 244.211 123.046Z" fill="black"/>
<path d="M398.123 138.768V48.6127H378.361V57.7003C378.361 58.4215 377.928 58.9985 377.207 59.287C376.485 59.5755 375.764 59.287 375.331 58.71C368.696 50.7764 358.31 46.3047 346.482 46.3047C321.816 46.3047 302.486 67.0764 302.486 93.618C302.486 120.16 321.816 140.931 346.482 140.931C357.877 140.931 368.408 136.171 375.331 127.805C375.764 127.228 376.63 127.083 377.207 127.228C377.928 127.516 378.361 128.093 378.361 128.814V138.623H398.123V138.768ZM350.954 123.045C335.086 123.045 322.681 110.206 322.681 93.7622C322.681 77.318 335.086 64.4799 350.954 64.4799C366.821 64.4799 379.226 77.318 379.226 93.7622C379.226 110.206 366.821 123.045 350.954 123.045Z" fill="black"/>
<path d="M567.326 138.768V48.6127H547.564V57.7003C547.564 58.4215 547.131 58.9985 546.41 59.287C545.689 59.5755 544.967 59.287 544.535 58.71C537.899 50.7764 527.513 46.3047 515.685 46.3047C490.874 46.3047 471.689 67.0764 471.689 93.7622C471.689 120.448 491.019 141.075 515.685 141.075C527.081 141.075 537.611 136.315 544.535 127.949C544.967 127.372 545.833 127.228 546.41 127.372C547.131 127.66 547.564 128.237 547.564 128.959V138.768H567.326V138.768ZM520.157 123.045C504.289 123.045 491.884 110.206 491.884 93.7622C491.884 77.318 504.289 64.4799 520.157 64.4799C536.024 64.4799 548.429 77.318 548.429 93.7622C548.429 110.206 536.024 123.045 520.157 123.045Z" fill="black"/>
<path d="M603.532 128.095C603.676 128.095 603.965 127.95 604.109 127.95C604.542 127.95 605.119 128.239 605.407 128.527C612.187 136.461 622.717 140.933 634.257 140.933C658.923 140.933 678.252 120.161 678.252 93.6193C678.252 80.637 673.781 68.6645 665.558 59.8653C657.336 51.0662 646.229 46.306 634.257 46.306C622.861 46.306 612.331 51.0662 605.407 59.2883C604.974 59.8653 604.253 60.0096 603.532 59.8653C602.811 59.5768 602.378 58.9999 602.378 58.2786V9.23438H582.472V138.769H602.378V129.681C602.378 128.96 602.811 128.383 603.532 128.095ZM601.512 93.7636C601.512 77.3193 613.918 64.4813 629.785 64.4813C645.652 64.4813 658.058 77.3193 658.058 93.7636C658.058 110.208 645.652 123.046 629.785 123.046C613.918 123.046 601.512 110.064 601.512 93.7636Z" fill="black"/>
<path d="M735.808 67.0772C737.683 67.0772 739.414 67.2215 740.568 67.51V47.0268C739.847 46.8825 738.549 46.7383 737.251 46.7383C726.865 46.7383 717.344 52.0754 712.296 60.5861C711.863 61.3073 711.142 61.5958 710.421 61.3073C709.699 61.1631 709.122 60.4418 709.122 59.7206V48.6135H689.36V138.913H709.267V99.1002C709.267 79.3383 719.364 67.0772 735.808 67.0772Z" fill="black"/>
<path d="M773.311 48.6133H753.116V138.912H773.311V48.6133Z" fill="black"/>
<path d="M762.927 9.375C756.147 9.375 750.666 14.8564 750.666 21.6361C750.666 28.4157 756.147 33.8971 762.927 33.8971C769.707 33.8971 775.188 28.4157 775.188 21.6361C775.188 14.8564 769.707 9.375 762.927 9.375Z" fill="black"/>
<path d="M832.453 46.3047C804.757 46.3047 784.707 66.2109 784.707 93.7622C784.707 107.177 789.467 119.15 797.978 127.805C806.633 136.46 818.75 141.22 832.309 141.22C843.56 141.22 852.215 139.056 868.659 126.939L857.264 114.967C849.186 120.304 841.685 122.9 834.328 122.9C817.596 122.9 805.046 110.351 805.046 93.7622C805.046 77.1737 817.596 64.6242 834.328 64.6242C842.262 64.6242 849.619 67.2206 856.975 72.5578L869.669 60.5852C854.811 47.8914 841.396 46.3047 832.453 46.3047Z" fill="black"/>
<path d="M903.711 99.0971C904 98.8086 904.432 98.6644 904.865 98.6644H905.009C905.442 98.6644 905.875 98.9529 906.308 99.2414L938.186 138.765H962.709L921.454 88.8555C920.877 88.1343 920.877 87.1246 921.598 86.5476L959.535 48.6104H935.157L902.413 81.4989C901.98 81.9316 901.259 82.0759 900.538 81.9316C899.961 81.6431 899.528 81.0661 899.528 80.3449V9.375H879.478V138.91H899.384V103.713C899.384 103.28 899.528 102.703 899.961 102.415L903.711 99.0971Z" fill="black"/>
<path d="M995.165 141.071C1011.46 141.071 1028.05 131.118 1028.05 112.222C1028.05 99.8164 1020.26 91.3058 1004.4 86.1129L993.578 82.5067C986.221 80.0545 982.759 76.5925 982.759 71.8324C982.759 66.3509 987.664 62.6005 994.588 62.6005C1001.22 62.6005 1007.14 66.9279 1010.89 74.4288L1026.9 65.7739C1020.99 53.6571 1008.72 46.1562 994.588 46.1562C976.701 46.1562 963.719 57.6961 963.719 73.4191C963.719 85.9686 971.22 94.335 986.654 99.2394L997.761 102.846C1005.55 105.298 1008.87 108.471 1008.87 113.52C1008.87 121.165 1001.8 123.906 995.742 123.906C987.664 123.906 980.451 118.713 976.989 110.202L960.689 118.857C966.027 132.561 979.153 141.071 995.165 141.071Z" fill="black"/>
<path d="M453.515 140.211C459.862 140.211 465.488 139.634 468.661 139.201V121.891C466.064 122.18 461.449 122.468 458.708 122.468C450.63 122.468 444.427 121.026 444.427 103.572V66.5C444.427 65.4902 445.149 64.769 446.158 64.769H465.632V48.469H446.158C445.149 48.469 444.427 47.7478 444.427 46.738V20.7734H424.521V46.8823C424.521 47.892 423.8 48.6133 422.79 48.6133H408.942V64.9133H422.79C423.8 64.9133 424.521 65.6345 424.521 66.6442V108.62C424.521 140.211 445.581 140.211 453.515 140.211Z" fill="black"/>
</g>
<path d="M458.033 218.001V173.901H471.578C479.348 173.901 485.06 175.875 488.714 179.823C492.41 183.771 494.258 189.189 494.258 196.077C494.258 202.839 492.41 208.194 488.714 212.142C485.06 216.048 479.348 218.001 471.578 218.001H458.033ZM463.325 213.591H471.452C475.736 213.591 479.138 212.898 481.658 211.512C484.22 210.084 486.047 208.068 487.139 205.464C488.231 202.818 488.777 199.689 488.777 196.077C488.777 192.381 488.231 189.21 487.139 186.564C486.047 183.918 484.22 181.881 481.658 180.453C479.138 179.025 475.736 178.311 471.452 178.311H463.325V213.591Z" fill="black"/>
<path d="M515.633 218.757C512.651 218.757 510.005 218.085 507.695 216.741C505.385 215.355 503.558 213.444 502.214 211.008C500.912 208.572 500.261 205.695 500.261 202.377C500.261 199.101 500.912 196.245 502.214 193.809C503.516 191.331 505.322 189.42 507.632 188.076C509.984 186.69 512.693 185.997 515.759 185.997C518.783 185.997 521.387 186.69 523.571 188.076C525.797 189.42 527.498 191.205 528.674 193.431C529.85 195.657 530.438 198.051 530.438 200.613C530.438 201.075 530.417 201.537 530.375 201.999C530.375 202.461 530.375 202.986 530.375 203.574H505.49C505.616 205.968 506.162 207.963 507.128 209.559C508.136 211.113 509.375 212.289 510.845 213.087C512.357 213.885 513.953 214.284 515.633 214.284C517.817 214.284 519.644 213.78 521.114 212.772C522.584 211.764 523.655 210.399 524.327 208.677H529.556C528.716 211.575 527.099 213.99 524.705 215.922C522.353 217.812 519.329 218.757 515.633 218.757ZM515.633 190.47C513.113 190.47 510.866 191.247 508.892 192.801C506.96 194.313 505.847 196.539 505.553 199.479H525.209C525.083 196.665 524.117 194.46 522.311 192.864C520.505 191.268 518.279 190.47 515.633 190.47Z" fill="black"/>
<path d="M545.231 218.001L533.387 186.753H538.931L548.318 212.898L557.768 186.753H563.186L551.342 218.001H545.231Z" fill="black"/>
<path d="M581.525 218.757C578.543 218.757 575.897 218.085 573.587 216.741C571.277 215.355 569.45 213.444 568.106 211.008C566.804 208.572 566.153 205.695 566.153 202.377C566.153 199.101 566.804 196.245 568.106 193.809C569.408 191.331 571.214 189.42 573.524 188.076C575.876 186.69 578.585 185.997 581.651 185.997C584.675 185.997 587.279 186.69 589.463 188.076C591.689 189.42 593.39 191.205 594.566 193.431C595.742 195.657 596.33 198.051 596.33 200.613C596.33 201.075 596.309 201.537 596.267 201.999C596.267 202.461 596.267 202.986 596.267 203.574H571.382C571.508 205.968 572.054 207.963 573.02 209.559C574.028 211.113 575.267 212.289 576.737 213.087C578.249 213.885 579.845 214.284 581.525 214.284C583.709 214.284 585.536 213.78 587.006 212.772C588.476 211.764 589.547 210.399 590.219 208.677H595.448C594.608 211.575 592.991 213.99 590.597 215.922C588.245 217.812 585.221 218.757 581.525 218.757ZM581.525 190.47C579.005 190.47 576.758 191.247 574.784 192.801C572.852 194.313 571.739 196.539 571.445 199.479H591.101C590.975 196.665 590.009 194.46 588.203 192.864C586.397 191.268 584.171 190.47 581.525 190.47Z" fill="black"/>
<path d="M603.344 218.001V172.641H608.636V218.001H603.344Z" fill="black"/>
<path d="M631.548 218.757C628.608 218.757 625.962 218.085 623.61 216.741C621.258 215.397 619.389 213.507 618.003 211.071C616.659 208.593 615.987 205.695 615.987 202.377C615.987 199.059 616.68 196.182 618.066 193.746C619.452 191.268 621.321 189.357 623.673 188.013C626.067 186.669 628.734 185.997 631.674 185.997C634.614 185.997 637.26 186.669 639.612 188.013C641.964 189.357 643.812 191.268 645.156 193.746C646.542 196.182 647.235 199.059 647.235 202.377C647.235 205.695 646.542 208.593 645.156 211.071C643.77 213.507 641.88 215.397 639.486 216.741C637.134 218.085 634.488 218.757 631.548 218.757ZM631.548 214.221C633.354 214.221 635.034 213.78 636.588 212.898C638.142 212.016 639.402 210.693 640.368 208.929C641.334 207.165 641.817 204.981 641.817 202.377C641.817 199.773 641.334 197.589 640.368 195.825C639.444 194.061 638.205 192.738 636.651 191.856C635.097 190.974 633.438 190.533 631.674 190.533C629.868 190.533 628.188 190.974 626.634 191.856C625.08 192.738 623.82 194.061 622.854 195.825C621.888 197.589 621.405 199.773 621.405 202.377C621.405 204.981 621.888 207.165 622.854 208.929C623.82 210.693 625.059 212.016 626.571 212.898C628.125 213.78 629.784 214.221 631.548 214.221Z" fill="black"/>
<path d="M654.593 231.861V186.753H659.381L659.885 191.919C660.893 190.407 662.321 189.042 664.169 187.824C666.059 186.606 668.453 185.997 671.351 185.997C674.459 185.997 677.168 186.711 679.478 188.139C681.788 189.567 683.573 191.52 684.833 193.998C686.135 196.476 686.786 199.29 686.786 202.44C686.786 205.59 686.135 208.404 684.833 210.882C683.573 213.318 681.767 215.25 679.415 216.678C677.105 218.064 674.396 218.757 671.288 218.757C668.726 218.757 666.437 218.232 664.421 217.182C662.447 216.132 660.935 214.662 659.885 212.772V231.861H654.593ZM670.721 214.158C672.821 214.158 674.669 213.675 676.265 212.709C677.861 211.701 679.121 210.315 680.045 208.551C680.969 206.787 681.431 204.729 681.431 202.377C681.431 200.025 680.969 197.967 680.045 196.203C679.121 194.439 677.861 193.074 676.265 192.108C674.669 191.1 672.821 190.596 670.721 190.596C668.621 190.596 666.773 191.1 665.177 192.108C663.581 193.074 662.321 194.439 661.397 196.203C660.473 197.967 660.011 200.025 660.011 202.377C660.011 204.729 660.473 206.787 661.397 208.551C662.321 210.315 663.581 211.701 665.177 212.709C666.773 213.675 668.621 214.158 670.721 214.158Z" fill="black"/>
<path d="M708.202 218.757C705.22 218.757 702.574 218.085 700.264 216.741C697.954 215.355 696.127 213.444 694.783 211.008C693.481 208.572 692.83 205.695 692.83 202.377C692.83 199.101 693.481 196.245 694.783 193.809C696.085 191.331 697.891 189.42 700.201 188.076C702.553 186.69 705.262 185.997 708.328 185.997C711.352 185.997 713.956 186.69 716.14 188.076C718.366 189.42 720.067 191.205 721.243 193.431C722.419 195.657 723.007 198.051 723.007 200.613C723.007 201.075 722.986 201.537 722.944 201.999C722.944 202.461 722.944 202.986 722.944 203.574H698.059C698.185 205.968 698.731 207.963 699.697 209.559C700.705 211.113 701.944 212.289 703.414 213.087C704.926 213.885 706.522 214.284 708.202 214.284C710.386 214.284 712.213 213.78 713.683 212.772C715.153 211.764 716.224 210.399 716.896 208.677H722.125C721.285 211.575 719.668 213.99 717.274 215.922C714.922 217.812 711.898 218.757 708.202 218.757ZM708.202 190.47C705.682 190.47 703.435 191.247 701.461 192.801C699.529 194.313 698.416 196.539 698.122 199.479H717.778C717.652 196.665 716.686 194.46 714.88 192.864C713.074 191.268 710.848 190.47 708.202 190.47Z" fill="black"/>
<path d="M730.021 218.001V186.753H734.809L735.25 192.738C736.216 190.68 737.686 189.042 739.66 187.824C741.634 186.606 744.07 185.997 746.968 185.997V191.541H745.519C743.671 191.541 741.97 191.877 740.416 192.549C738.862 193.179 737.623 194.271 736.699 195.825C735.775 197.379 735.313 199.521 735.313 202.251V218.001H730.021Z" fill="black"/>
<path d="M769.896 218.001V173.901H784.134C787.578 173.901 790.392 174.468 792.576 175.602C794.76 176.736 796.377 178.29 797.427 180.264C798.477 182.238 799.002 184.422 799.002 186.816C799.002 189.588 798.246 192.087 796.734 194.313C795.264 196.539 792.954 198.114 789.804 199.038L799.443 218.001H793.206L784.26 199.794H783.882H775.188V218.001H769.896ZM775.188 195.636H783.756C787.158 195.636 789.636 194.817 791.19 193.179C792.744 191.541 793.521 189.441 793.521 186.879C793.521 184.275 792.744 182.217 791.19 180.705C789.678 179.151 787.179 178.374 783.693 178.374H775.188V195.636Z" fill="black"/>
<path d="M819.067 218.757C816.085 218.757 813.439 218.085 811.129 216.741C808.819 215.355 806.992 213.444 805.648 211.008C804.346 208.572 803.695 205.695 803.695 202.377C803.695 199.101 804.346 196.245 805.648 193.809C806.95 191.331 808.756 189.42 811.066 188.076C813.418 186.69 816.127 185.997 819.193 185.997C822.217 185.997 824.821 186.69 827.005 188.076C829.231 189.42 830.932 191.205 832.108 193.431C833.284 195.657 833.872 198.051 833.872 200.613C833.872 201.075 833.851 201.537 833.809 201.999C833.809 202.461 833.809 202.986 833.809 203.574H808.924C809.05 205.968 809.596 207.963 810.562 209.559C811.57 211.113 812.809 212.289 814.279 213.087C815.791 213.885 817.387 214.284 819.067 214.284C821.251 214.284 823.078 213.78 824.548 212.772C826.018 211.764 827.089 210.399 827.761 208.677H832.99C832.15 211.575 830.533 213.99 828.139 215.922C825.787 217.812 822.763 218.757 819.067 218.757ZM819.067 190.47C816.547 190.47 814.3 191.247 812.326 192.801C810.394 194.313 809.281 196.539 808.987 199.479H828.643C828.517 196.665 827.551 194.46 825.745 192.864C823.939 191.268 821.713 190.47 819.067 190.47Z" fill="black"/>
<path d="M840.886 218.001V172.641H846.178V218.001H840.886Z" fill="black"/>
<path d="M865.247 218.757C862.643 218.757 860.48 218.316 858.758 217.434C857.036 216.552 855.755 215.376 854.915 213.906C854.075 212.436 853.655 210.84 853.655 209.118C853.655 205.926 854.873 203.469 857.309 201.747C859.745 200.025 863.063 199.164 867.263 199.164H875.705V198.786C875.705 196.056 874.991 193.998 873.563 192.612C872.135 191.184 870.224 190.47 867.83 190.47C865.772 190.47 863.987 190.995 862.475 192.045C861.005 193.053 860.081 194.544 859.703 196.518H854.285C854.495 194.25 855.251 192.339 856.553 190.785C857.897 189.231 859.556 188.055 861.53 187.257C863.504 186.417 865.604 185.997 867.83 185.997C872.198 185.997 875.474 187.173 877.658 189.525C879.884 191.835 880.997 194.922 880.997 198.786V218.001H876.272L875.957 212.394C875.075 214.158 873.773 215.67 872.051 216.93C870.371 218.148 868.103 218.757 865.247 218.757ZM866.066 214.284C868.082 214.284 869.804 213.759 871.232 212.709C872.702 211.659 873.815 210.294 874.571 208.614C875.327 206.934 875.705 205.17 875.705 203.322V203.259H867.704C864.596 203.259 862.391 203.805 861.089 204.897C859.829 205.947 859.199 207.27 859.199 208.866C859.199 210.504 859.787 211.827 860.963 212.835C862.181 213.801 863.882 214.284 866.066 214.284Z" fill="black"/>
<path d="M900.423 218.001C897.567 218.001 895.32 217.308 893.682 215.922C892.044 214.536 891.225 212.037 891.225 208.425V191.226H885.807V186.753H891.225L891.918 179.256H896.517V186.753H905.715V191.226H896.517V208.425C896.517 210.399 896.916 211.743 897.714 212.457C898.512 213.129 899.919 213.465 901.935 213.465H905.211V218.001H900.423Z" fill="black"/>
<path d="M915.651 179.823C914.601 179.823 913.719 179.487 913.005 178.815C912.333 178.101 911.997 177.219 911.997 176.169C911.997 175.161 912.333 174.321 913.005 173.649C913.719 172.977 914.601 172.641 915.651 172.641C916.659 172.641 917.52 172.977 918.234 173.649C918.948 174.321 919.305 175.161 919.305 176.169C919.305 177.219 918.948 178.101 918.234 178.815C917.52 179.487 916.659 179.823 915.651 179.823ZM913.005 218.001V186.753H918.297V218.001H913.005Z" fill="black"/>
<path d="M941.749 218.757C938.809 218.757 936.163 218.085 933.811 216.741C931.459 215.397 929.59 213.507 928.204 211.071C926.86 208.593 926.188 205.695 926.188 202.377C926.188 199.059 926.881 196.182 928.267 193.746C929.653 191.268 931.522 189.357 933.874 188.013C936.268 186.669 938.935 185.997 941.875 185.997C944.815 185.997 947.461 186.669 949.813 188.013C952.165 189.357 954.013 191.268 955.357 193.746C956.743 196.182 957.436 199.059 957.436 202.377C957.436 205.695 956.743 208.593 955.357 211.071C953.971 213.507 952.081 215.397 949.687 216.741C947.335 218.085 944.689 218.757 941.749 218.757ZM941.749 214.221C943.555 214.221 945.235 213.78 946.789 212.898C948.343 212.016 949.603 210.693 950.569 208.929C951.535 207.165 952.018 204.981 952.018 202.377C952.018 199.773 951.535 197.589 950.569 195.825C949.645 194.061 948.406 192.738 946.852 191.856C945.298 190.974 943.639 190.533 941.875 190.533C940.069 190.533 938.389 190.974 936.835 191.856C935.281 192.738 934.021 194.061 933.055 195.825C932.089 197.589 931.606 199.773 931.606 202.377C931.606 204.981 932.089 207.165 933.055 208.929C934.021 210.693 935.26 212.016 936.772 212.898C938.326 213.78 939.985 214.221 941.749 214.221Z" fill="black"/>
<path d="M964.794 218.001V186.753H969.582L969.897 192.36C970.905 190.386 972.354 188.832 974.244 187.698C976.134 186.564 978.276 185.997 980.67 185.997C984.366 185.997 987.306 187.131 989.49 189.399C991.716 191.625 992.829 195.069 992.829 199.731V218.001H987.537V200.298C987.537 193.788 984.849 190.533 979.473 190.533C976.785 190.533 974.538 191.52 972.732 193.494C970.968 195.426 970.086 198.198 970.086 201.81V218.001H964.794Z" fill="black"/>
<path d="M1012.82 218.757C1009.08 218.757 1005.97 217.812 1003.49 215.922C1001.02 214.032 999.566 211.47 999.146 208.236H1004.56C1004.9 209.874 1005.76 211.302 1007.15 212.52C1008.58 213.696 1010.49 214.284 1012.88 214.284C1015.11 214.284 1016.74 213.822 1017.79 212.898C1018.84 211.932 1019.37 210.798 1019.37 209.496C1019.37 207.606 1018.68 206.346 1017.29 205.716C1015.95 205.086 1014.04 204.519 1011.56 204.015C1009.88 203.679 1008.2 203.196 1006.52 202.566C1004.84 201.936 1003.43 201.054 1002.3 199.92C1001.16 198.744 1000.6 197.211 1000.6 195.321C1000.6 192.591 1001.6 190.365 1003.62 188.643C1005.68 186.879 1008.45 185.997 1011.94 185.997C1015.25 185.997 1017.96 186.837 1020.06 188.517C1022.2 190.155 1023.44 192.507 1023.78 195.573H1018.55C1018.34 193.977 1017.65 192.738 1016.47 191.856C1015.34 190.932 1013.8 190.47 1011.87 190.47C1009.98 190.47 1008.51 190.869 1007.46 191.667C1006.45 192.465 1005.95 193.515 1005.95 194.817C1005.95 196.077 1006.6 197.064 1007.9 197.778C1009.25 198.492 1011.05 199.101 1013.32 199.605C1015.25 200.025 1017.08 200.55 1018.8 201.18C1020.57 201.768 1021.99 202.671 1023.09 203.889C1024.22 205.065 1024.79 206.787 1024.79 209.055C1024.83 211.869 1023.76 214.2 1021.57 216.048C1019.43 217.854 1016.51 218.757 1012.82 218.757Z" fill="black"/>
</g>
<defs>
<clipPath id="clip0_10_11730">
<rect width="1028.2" height="238" fill="white"/>
</clipPath>
<clipPath id="clip1_10_11730">
<rect width="1028.2" height="163" fill="white"/>
</clipPath>
</defs>
</svg>
